<svg xmlns="http://www.w3.org/2000/svg" viewBox="0 0 64 64" fill="none">
  <rect width="64" height="64" rx="14" fill="#0f766e"/>

  <rect x="10" y="26" width="14" height="28" rx="2" fill="#ecfeff"/>
  <rect x="26" y="16" width="16" height="38" rx="2" fill="#ccfbf1"/>
  <rect x="44" y="22" width="10" height="32" rx="2" fill="#99f6e4"/>

  <rect x="13" y="30" width="3" height="3" rx="1" fill="#0f766e"/>
  <rect x="18" y="30" width="3" height="3" rx="1" fill="#0f766e"/>
  <rect x="13" y="35" width="3" height="3" rx="1" fill="#0f766e"/>
  <rect x="18" y="35" width="3" height="3" rx="1" fill="#0f766e"/>
  <rect x="13" y="40" width="3" height="3" rx="1" fill="#0f766e"/>
  <rect x="18" y="40" width="3" height="3" rx="1" fill="#0f766e"/>

  <rect x="30" y="21" width="3" height="3" rx="1" fill="#0f766e"/>
  <rect x="35" y="21" width="3" height="3" rx="1" fill="#0f766e"/>
  <rect x="30" y="26" width="3" height="3" rx="1" fill="#0f766e"/>
  <rect x="35" y="26" width="3" height="3" rx="1" fill="#0f766e"/>
  <rect x="30" y="31" width="3" height="3" rx="1" fill="#0f766e"/>
  <rect x="35" y="31" width="3" height="3" rx="1" fill="#0f766e"/>
  <rect x="30" y="36" width="3" height="3" rx="1" fill="#0f766e"/>
  <rect x="35" y="36" width="3" height="3" rx="1" fill="#0f766e"/>

  <rect x="47" y="26" width="2.5" height="2.5" rx="0.8" fill="#0f766e"/>
  <rect x="51" y="26" width="2.5" height="2.5" rx="0.8" fill="#0f766e"/>
  <rect x="47" y="30" width="2.5" height="2.5" rx="0.8" fill="#0f766e"/>
  <rect x="51" y="30" width="2.5" height="2.5" rx="0.8" fill="#0f766e"/>
  <rect x="47" y="34" width="2.5" height="2.5" rx="0.8" fill="#0f766e"/>
  <rect x="51" y="34" width="2.5" height="2.5" rx="0.8" fill="#0f766e"/>

  <rect x="31" y="43" width="6" height="11" rx="1" fill="#0f766e"/>
</svg>
